Coordinates
version=1
nRows=6
nColumns=34
inDegrees=yes

Units are S.I. units (second, meters, Newtons, ...)
If the header above contains a line with 'inDegrees', this indicates whether rotational values are in degrees (yes) or radians (no).

endheader
time	pelvis_tilt	pelvis_list	pelvis_rotation	pelvis_tx	pelvis_ty	pelvis_tz	hip_flexion_r	hip_adduction_r	hip_rotation_r	knee_angle_r	ankle_angle_r	subtalar_angle_r	mtp_angle_r	hip_flexion_l	hip_adduction_l	hip_rotation_l	knee_angle_l	ankle_angle_l	subtalar_angle_l	mtp_angle_l	lumbar_extension	lumbar_bending	lumbar_rotation	arm_flex_r	arm_add_r	arm_rot_r	elbow_flex_r	pro_sup_r	arm_flex_l	arm_add_l	arm_rot_l	elbow_flex_l	pro_sup_l
      1.08333330	      2.63284450	      1.26019602	     -7.62420826	      1.80300923	      0.89301406	     -0.18699465	     -4.62663655	     -4.51914969	      4.25500033	      0.00000000	      2.50006030	    -20.75989062	      0.00000000	     -8.93158011	     -1.22439811	     -3.82273699	      0.00000000	      2.83545394	     -8.84565070	      0.00000000	    -11.61588939	     -1.34882266	     -4.66010376	      7.90010558	     -3.99043487	      2.04633547	     74.23833514	     82.00462597	     13.82712919	     -7.25251913	     38.50015756	     56.37797050	     73.03864593
      1.10000000	      2.32179566	      1.20515747	     -8.27558257	      1.80154506	      0.89085091	     -0.18779085	     -3.98091412	     -4.52881966	      4.76264159	      0.00000000	      2.52473142	    -20.35325816	      0.00000000	     -8.54605564	     -1.18260268	     -4.21249750	      0.00000000	      2.79007765	     -9.28079244	      0.00000000	    -11.44666124	     -1.38806251	     -5.27346138	      7.91049490	     -3.54359854	      1.67852963	     74.51288512	     81.73253104	     14.05069874	     -7.58380675	     38.67129581	     56.34471390	     72.97975568
      1.11666670	      1.59077118	      1.20915722	     -8.72304849	      1.80078560	      0.89020911	     -0.18839200	     -2.94559663	     -4.52327400	      4.79113642	      0.00000000	      2.80073585	    -19.81628881	      0.00000000	     -7.71130303	     -1.17325801	     -4.12851716	      0.00000000	      2.46572090	     -9.80636035	      0.00000000	    -10.50544391	     -1.46986808	     -5.63371878	      7.18802260	     -3.15094230	      0.39189629	     74.75182428	     80.57127426	     14.03661811	     -7.78190909	     39.39759297	     56.77343095	     72.66821675
      1.13333330	      1.50884309	      1.13777440	     -9.45318702	      1.79885255	      0.89083513	     -0.18821562	     -2.52263686	     -4.54934710	      5.17433302	      0.00000000	      2.68609726	    -19.45375634	      0.00000000	     -7.61964937	     -1.09767416	     -4.37519291	      0.00000000	      2.62334686	    -10.03987743	      0.00000000	    -10.52329758	     -1.51269716	     -6.12014313	      7.24363277	     -2.95478912	      0.21198491	     74.98226945	     80.35992399	     14.26329174	     -7.87551901	     39.53957427	     56.70043598	     72.59807108
      1.15000000	      1.41713595	      1.00900879	    -10.02094635	      1.79694815	      0.88981668	     -0.18783562	     -2.14979429	     -4.48785284	      5.39858421	      0.00000000	      2.64799013	    -19.26105783	      0.00000000	     -7.51179961	     -1.11804808	     -4.56843910	      0.00000000	      2.71513392	    -10.17566534	      0.00000000	    -10.53836012	     -1.61988287	     -6.70695936	      7.10479607	     -2.97377824	      0.05805886	     75.06735434	     80.27237735	     14.54319997	     -7.85931152	     39.60150512	     56.73785500	     72.57041181
      1.16666670	      0.53748227	      1.04319869	    -10.91897097	      1.79576264	      0.88684830	     -0.18709824	     -0.84089168	     -4.42181048	      5.77961753	      0.00000000	      2.87722393	    -18.62309592	      0.00000000	     -6.59518297	     -1.09027269	     -5.06074369	      0.00000000	      2.72345672	    -10.39013706	      0.00000000	     -9.45210343	     -1.58713411	     -7.13499451	      6.77528347	     -2.47012689	     -0.73364134	     75.73928916	     79.37269744	     14.45453919	     -8.36406754	     40.44438907	     57.12717156	     72.23127739
